<svg xmlns="http://www.w3.org/2000/svg" id="flag-icon-css-gb" viewBox="0 0 640 480"><path fill="#012169" d="M0 0h640v480H0z"/><path fill="#FFF" d="M75 0l244 181L562 0h78v62L400 241l240 178v61h-80L320 301 81 480H0v-60l239-178L0 64V0h75z"/><path fill="#C8102E" d="M424 281l216 159v40L369 281h55zm-184 20l6 35L54 480H0l240-179zM640 0v3L391 191l2-44L590 0h50zM0 0l239 176h-60L0 42V0z"/><path fill="#FFF" d="M241 0v480h160V0H241zM0 160v160h640V160H0z"/><path fill="#C8102E" d="M0 193v96h640v-96H0zM273 0v480h96V0h-96z"/><template xmlns="" id="transover-popup-template"><style>
    .pos_translation {
      padding-bottom: 3px;
    }

    strong {
      font-weight: bold;
    }

    .rtl {
      direction: rtl;
    }

    main {
      color: #333;
      font-family: Arial, sans-serif;
      font-size: 14px;
      font-weight: 300;
      letter-spacing: initial;

      background: #fcf7d9;
      text-align: left;
      border-style: solid;
      border-width: 1px;
      border-color: #ccc;
      box-shadow: rgba(0,0,0,0.2) 0px 2px 5px;
      border-radius: 5px;
      padding: 6px 8px 3px 8px;
      position: fixed;
      z-index: 2147483647;
      top: -1500px;
      left: 0;
      box-sizing: content-box;
      -webkit-font-smoothing: antialiased;
      font-smoothing: antialiased;
      text-rendering: optimizeLegibility;

      /* To fix the following issue:
      1. Have translate on hover enabled (opposed to translate on click).
      2. Wisit a website that has a dropdown menu that opens on hover.
      3. Open the menu.
      4. Hover over a word within that menu.
      5. Incidentally move the cursor over the TransOver popup.
      The hover menu gets closed.
      */
      pointer-events: none;
    }

    .pos_translation {
      font-size: 1em;
      line-height: 1.2em;
    }

    .red {
      color: red;
    }

    .from_lang {
      color: grey;
      font-size: 0.8em;
      line-height: 1.2em;
      margin-top: 2px;
      margin-bottom: 3px;
    }
  </style><main translate="no"/></template></svg>