<svg xmlns="http://www.w3.org/2000/svg" id="Ebene_1" data-name="Ebene 1" viewBox="0 0 628.94 591.39"><defs><style> .cls-1 { fill: #153e69; } .cls-2 { fill: #515151; } </style></defs><g><g><path class="cls-2" d="M93.7,212.4h52v130.82h-52V212.4Z"/><path class="cls-1" d="M93.7,150.77h52v47.66h-52v-47.66Z"/></g><path class="cls-2" d="M529.39,0V388.22l-147.83,.03V200.08h-50.53v142.98h-54.36V199.52h-51.45v143.55h-52.85V150.69h77.71c.37,0,.74-.02,1.12-.02,42.04-.04,84.07-.09,126.11-.01,34.36,.07,57.98,23.61,58.04,57.82,.08,38.19,.02,76.38,.02,114.57v10.38l37.52-.03V56.5H56.5V418.24h472.89v56.51H0V0H529.39Z"/></g><g><path class="cls-2" d="M0,506.85H14.67v82.45H0v-82.45Z"/><path class="cls-2" d="M33.07,506.85h22.36l22.01,57.76,22.24-57.76h22.13v82.45h-13.97v-68.47h-.23l-25.04,68.47h-10.25l-25.04-68.47h-.23v68.47h-13.97v-82.45Z"/><path class="cls-2" d="M140.91,506.85h22.36l22.01,57.76,22.24-57.76h22.13v82.45h-13.97v-68.47h-.23l-25.04,68.47h-10.25l-25.04-68.47h-.23v68.47h-13.97v-82.45Z"/><path class="cls-2" d="M248.39,506.85h54.62v13.28h-39.94v20.26h37.85v13.28h-37.85v22.36h42.04v13.28h-56.71v-82.45Z"/><path class="cls-2" d="M319.54,506.85h28.65c3.96,0,7.78,.37,11.47,1.11,3.69,.74,6.97,2,9.84,3.78,2.87,1.79,5.16,4.19,6.87,7.22,1.71,3.03,2.56,6.87,2.56,11.53,0,5.98-1.65,10.99-4.95,15.02-3.3,4.04-8.02,6.48-14.15,7.34l21.89,36.45h-17.7l-19.1-34.94h-10.71v34.94h-14.67v-82.45Zm26.09,34.94c2.1,0,4.19-.1,6.29-.29,2.1-.19,4.02-.66,5.76-1.4,1.75-.74,3.16-1.86,4.25-3.38,1.09-1.51,1.63-3.63,1.63-6.35,0-2.41-.51-4.35-1.51-5.82-1.01-1.47-2.33-2.58-3.96-3.32-1.63-.74-3.44-1.22-5.41-1.46-1.98-.23-3.9-.35-5.76-.35h-12.69v22.36h11.41Z"/><path class="cls-2" d="M449.5,526.18c-3.03-3.26-5.96-5.43-8.79-6.52-2.84-1.09-5.69-1.63-8.56-1.63-4.27,0-8.13,.76-11.59,2.27-3.46,1.51-6.42,3.61-8.91,6.29-2.49,2.68-4.41,5.8-5.76,9.37-1.36,3.57-2.04,7.41-2.04,11.53,0,4.43,.68,8.5,2.04,12.23,1.36,3.73,3.28,6.95,5.76,9.67,2.48,2.72,5.45,4.85,8.91,6.41,3.45,1.55,7.32,2.33,11.59,2.33,3.34,0,6.58-.8,9.72-2.39,3.14-1.59,6.07-4.13,8.79-7.63l12.11,8.62c-3.73,5.12-8.27,8.85-13.63,11.18-5.36,2.33-11.06,3.49-17.12,3.49-6.37,0-12.21-1.03-17.53-3.09-5.32-2.06-9.9-4.97-13.74-8.73-3.84-3.76-6.85-8.29-9.03-13.57-2.17-5.28-3.26-11.14-3.26-17.58s1.09-12.6,3.26-17.99c2.17-5.4,5.18-9.99,9.03-13.8,3.84-3.8,8.42-6.73,13.74-8.79,5.32-2.06,11.16-3.09,17.53-3.09,5.59,0,10.77,.99,15.55,2.97,4.77,1.98,9.22,5.34,13.33,10.07l-11.41,8.38Z"/><path class="cls-2" d="M472.68,506.85h54.62v13.28h-39.94v20.26h37.85v13.28h-37.85v22.36h42.04v13.28h-56.71v-82.45Z"/></g><g><path class="cls-2" d="M576.59,540.68c-2.62,2.41-4.36,4.75-5.23,7-.87,2.26-1.31,4.53-1.31,6.82,0,3.4,.61,6.48,1.82,9.23,1.22,2.75,2.9,5.12,5.05,7.1,2.15,1.98,4.66,3.51,7.52,4.59,2.87,1.08,5.95,1.62,9.25,1.62,3.55,0,6.82-.54,9.81-1.62,2.99-1.08,5.58-2.61,7.76-4.59,2.18-1.98,3.9-4.34,5.14-7.1,1.25-2.75,1.87-5.83,1.87-9.23,0-2.66-.64-5.24-1.92-7.75-1.28-2.5-3.32-4.84-6.12-7l6.92-9.65c4.11,2.97,7.1,6.59,8.97,10.85,1.87,4.27,2.8,8.81,2.8,13.64,0,5.07-.83,9.73-2.48,13.96-1.65,4.24-3.99,7.89-7.01,10.95-3.02,3.06-6.65,5.46-10.89,7.19-4.24,1.73-8.94,2.6-14.11,2.6s-10.11-.87-14.44-2.6c-4.33-1.73-8.02-4.13-11.08-7.19-3.05-3.06-5.41-6.71-7.06-10.95-1.65-4.24-2.48-8.89-2.48-13.96,0-4.45,.79-8.58,2.38-12.39,1.59-3.8,4.29-7.34,8.09-10.62l6.73,9.09Z"/><path class="cls-2" d="M594.45,525.74c-5.3,0-10.11-.87-14.44-2.6-4.33-1.73-8.02-4.13-11.08-7.19-3.05-3.06-5.41-6.71-7.06-10.95-1.65-4.24-2.48-8.89-2.48-13.96-.06-5.13,.7-9.83,2.29-14.1,1.59-4.27,3.91-7.95,6.96-11.04,3.05-3.09,6.73-5.5,11.03-7.24,4.3-1.73,9.1-2.6,14.39-2.6s9.88,.87,14.11,2.6c4.24,1.73,7.88,4.14,10.94,7.24,3.05,3.09,5.44,6.77,7.15,11.04,1.71,4.27,2.6,8.97,2.66,14.1,0,5.07-.83,9.73-2.48,13.96-1.65,4.24-3.99,7.89-7.01,10.95-3.02,3.06-6.65,5.46-10.89,7.19-4.24,1.73-8.94,2.6-14.11,2.6Zm-.75-12.25c3.55,0,6.82-.54,9.81-1.62,2.99-1.08,5.58-2.61,7.76-4.59,2.18-1.98,3.9-4.34,5.14-7.1,1.25-2.75,1.87-5.83,1.87-9.23s-.62-6.49-1.87-9.28c-1.25-2.78-2.96-5.16-5.14-7.14-2.18-1.98-4.77-3.51-7.76-4.59-2.99-1.08-6.26-1.62-9.81-1.62-3.3,0-6.39,.54-9.25,1.62-2.87,1.08-5.37,2.61-7.52,4.59-2.15,1.98-3.83,4.36-5.05,7.14s-1.82,5.88-1.82,9.28,.61,6.48,1.82,9.23c1.22,2.75,2.9,5.12,5.05,7.1,2.15,1.98,4.66,3.51,7.52,4.59,2.87,1.08,5.95,1.62,9.25,1.62Z"/><path class="cls-2" d="M561.08,444.94v-15.49l49.17-31.82v-.19h-49.17v-11.69h66.18v14.84l-50.76,32.47v.19h50.76v11.69h-66.18Z"/><path class="cls-2" d="M575.28,338.9c-1.81,1.24-3.13,2.89-3.97,4.96-.84,2.07-1.26,4.25-1.26,6.54,0,1.36,.16,2.68,.47,3.94,.31,1.27,.81,2.41,1.5,3.43,.69,1.02,1.57,1.84,2.66,2.46,1.09,.62,2.38,.93,3.88,.93,2.24,0,3.96-.77,5.14-2.32,1.18-1.55,2.21-3.46,3.08-5.75,.87-2.29,1.71-4.79,2.52-7.51,.81-2.72,1.93-5.23,3.37-7.51,1.43-2.29,3.33-4.2,5.7-5.75,2.37-1.55,5.51-2.32,9.44-2.32,3.55,0,6.65,.65,9.3,1.95,2.65,1.3,4.85,3.05,6.59,5.24,1.75,2.2,3.05,4.75,3.93,7.65,.87,2.91,1.31,5.97,1.31,9.18,0,4.08-.69,8.01-2.06,11.78-1.37,3.77-3.68,7.02-6.92,9.74l-8.6-8.81c2.18-1.42,3.88-3.29,5.09-5.61,1.21-2.32,1.82-4.78,1.82-7.38,0-1.36-.19-2.72-.56-4.08-.37-1.36-.93-2.6-1.68-3.71-.75-1.11-1.7-2.01-2.85-2.69-1.15-.68-2.48-1.02-3.97-1.02-2.43,0-4.3,.77-5.61,2.32-1.31,1.55-2.41,3.46-3.32,5.75-.9,2.29-1.76,4.79-2.57,7.51-.81,2.72-1.92,5.23-3.32,7.51-1.4,2.29-3.27,4.21-5.61,5.75-2.34,1.55-5.47,2.32-9.39,2.32-3.43,0-6.39-.7-8.88-2.09-2.49-1.39-4.56-3.21-6.22-5.47-1.65-2.26-2.88-4.84-3.69-7.75-.81-2.91-1.22-5.88-1.22-8.91,0-3.46,.53-6.82,1.59-10.07,1.06-3.25,2.8-6.17,5.23-8.77l9.07,8.54Z"/><path class="cls-2" d="M602.95,265.24c3.99,0,7.59,.68,10.8,2.04,3.21,1.36,5.94,3.22,8.18,5.57,2.24,2.35,3.97,5.13,5.19,8.35,1.22,3.22,1.82,6.71,1.82,10.48s-.61,7.27-1.82,10.48c-1.22,3.22-2.94,6.02-5.19,8.4-2.24,2.38-4.97,4.24-8.18,5.57-3.21,1.33-6.81,1.99-10.8,1.99h-41.88v-11.69h41.5c1.62,0,3.32-.25,5.09-.74,1.78-.49,3.41-1.31,4.91-2.46,1.5-1.14,2.73-2.66,3.69-4.55,.97-1.89,1.45-4.22,1.45-7s-.48-5.12-1.45-7c-.97-1.89-2.2-3.4-3.69-4.55-1.5-1.14-3.13-1.96-4.91-2.46-1.78-.49-3.47-.74-5.09-.74h-41.5v-11.69h41.88Z"/><path class="cls-2" d="M561.08,250.86v-11.69h55.52v-27.92h10.66v39.61h-66.18Z"/><path class="cls-2" d="M571.73,197.79v20.13h-10.66v-51.95h10.66v20.13h55.52v11.69h-55.52Z"/><path class="cls-2" d="M561.08,158.27v-11.69h66.18v11.69h-66.18Z"/><path class="cls-2" d="M561.08,132.2v-15.49l49.17-31.82v-.19h-49.17v-11.69h66.18v14.84l-50.76,32.47v.19h50.76v11.69h-66.18Z"/><path class="cls-2" d="M622.39,0c4.36,8.1,6.54,17.16,6.54,27.18,0,5.07-.83,9.73-2.48,13.96-1.65,4.24-3.99,7.89-7.01,10.95-3.02,3.06-6.65,5.46-10.89,7.19-4.24,1.73-8.94,2.6-14.11,2.6s-10.11-.87-14.44-2.6c-4.33-1.73-8.02-4.13-11.08-7.19-3.05-3.06-5.41-6.71-7.06-10.95-1.65-4.24-2.48-8.89-2.48-13.96s.61-9.71,1.82-14.1c1.22-4.39,3.38-8.32,6.5-11.78l8.79,8.63c-2.06,2.1-3.65,4.65-4.77,7.65-1.12,3-1.68,6.17-1.68,9.51s.61,6.48,1.82,9.23c1.22,2.75,2.9,5.12,5.05,7.1,2.15,1.98,4.66,3.51,7.52,4.59,2.87,1.08,5.95,1.62,9.25,1.62,3.55,0,6.82-.54,9.81-1.62,2.99-1.08,5.58-2.61,7.76-4.59,2.18-1.98,3.9-4.34,5.14-7.1,1.25-2.75,1.87-5.83,1.87-9.23,0-2.97-.28-5.77-.84-8.4-.56-2.63-1.43-4.96-2.62-7h-15.61v13.45h-10.66V0h33.84Z"/></g><template xmlns="" id="transover-popup-template"><style>
    .pos_translation {
      padding-bottom: 3px;
    }

    strong {
      font-weight: bold;
    }

    .rtl {
      direction: rtl;
    }

    main {
      color: #333;
      font-family: Arial, sans-serif;
      font-size: 14px;
      font-weight: 300;
      letter-spacing: initial;

      background: #fcf7d9;
      text-align: left;
      border-style: solid;
      border-width: 1px;
      border-color: #ccc;
      box-shadow: rgba(0,0,0,0.2) 0px 2px 5px;
      border-radius: 5px;
      padding: 6px 8px 3px 8px;
      position: fixed;
      z-index: 2147483647;
      top: -1500px;
      left: 0;
      box-sizing: content-box;
      -webkit-font-smoothing: antialiased;
      font-smoothing: antialiased;
      text-rendering: optimizeLegibility;

      /* To fix the following issue:
      1. Have translate on hover enabled (opposed to translate on click).
      2. Wisit a website that has a dropdown menu that opens on hover.
      3. Open the menu.
      4. Hover over a word within that menu.
      5. Incidentally move the cursor over the TransOver popup.
      The hover menu gets closed.
      */
      pointer-events: none;
    }

    .pos_translation {
      font-size: 1em;
      line-height: 1.2em;
    }

    .red {
      color: red;
    }

    .from_lang {
      color: grey;
      font-size: 0.8em;
      line-height: 1.2em;
      margin-top: 2px;
      margin-bottom: 3px;
    }
  </style><main translate="no"/></template></svg>